<?xml version="1.0" encoding="UTF-8"?>
<svg id="Capa_1" data-name="Capa 1" xmlns="http://www.w3.org/2000/svg" viewBox="0 0 1080.65 274.93">
  <defs>
    <style>
      .cls-1 {
        fill: white;
        stroke-width: 0px;
      }
    </style>
  </defs>
  <g>
    <path class="cls-1" d="m565.27,105.25c-8.96-8.96-20.98-13.75-33.7-13.4-11.26.31-22.06,4.81-30.23,12.57-18.7,17.78-18.98,47.46-.84,65.59,8.65,8.65,20.15,13.41,32.38,13.41,9.3,0,18.18-2.76,25.7-7.88l5.08,5.08c3.37,3.37,8.84,3.37,12.21,0h0c3.37-3.37,3.37-8.84,0-12.21l-5.08-5.08c12.08-17.81,10.24-42.31-5.53-58.08Zm-52.56,52.56c-11.12-11.12-11.12-29.22,0-40.35,5.39-5.39,12.55-8.36,20.17-8.36,7.62,0,14.78,2.97,20.17,8.36,11.12,11.12,11.12,29.22,0,40.35-5.39,5.39-12.55,8.36-20.17,8.36-7.62,0-14.78-2.97-20.17-8.36Z" />
    <path class="cls-1" d="m442.62,109.13c8.92-.31,17.22,3.48,22.78,10.07,2.56,3.03,6.91,3.83,10.44,2.03h0c4.99-2.55,6.24-9.07,2.61-13.34-8.92-10.48-22.18-16.51-36.43-16.02-24.49.83-44.13,21.14-44.2,45.64-.07,25.31,20.5,45.93,45.8,45.93,13.71,0,26.37-6.02,34.95-16.19,3.56-4.22,2.19-10.68-2.73-13.19h0c-3.57-1.83-7.92-.94-10.52,2.12-5.35,6.28-13.2,10-21.7,10-15.76,0-28.57-12.84-28.53-28.6.04-15.24,12.29-27.91,27.52-28.44Z" />
    <path class="cls-1" d="m998.3,166.17c-15.75,0-28.57-12.84-28.53-28.6.04-15.24,12.29-27.91,27.52-28.44,8.92-.31,17.22,3.48,22.78,10.07,2.56,3.03,6.91,3.83,10.44,2.03h0c4.99-2.55,6.24-9.07,2.61-13.34-8.92-10.48-22.18-16.51-36.43-16.02-24.49.83-44.13,21.14-44.2,45.64-.07,25.31,20.5,45.93,45.8,45.93,13.71,0,26.37-6.02,34.95-16.19,3.56-4.22,2.19-10.68-2.73-13.2h0c-3.57-1.82-7.92-.94-10.52,2.12-5.35,6.28-13.2,10-21.69,10Z" />
    <path class="cls-1" d="m659.94,101.92c-8.37-6.68-19.12-10.5-30.75-9.95-23.6,1.12-42.63,20.33-43.54,43.94-1.01,26.07,19.91,47.6,45.76,47.6,24.14,0,44.39-18.76,45.68-42.5.12-2.2.12-4.25.12-4.25v-57.93c0-4.77-3.87-8.63-8.63-8.63h0c-4.77,0-8.63,3.87-8.63,8.63v23.09Zm-26.66,64.27c-17.2,1.1-31.43-13.14-30.33-30.33.91-14.21,12.39-25.7,26.6-26.6,17.2-1.1,31.43,13.14,30.33,30.33-.91,14.21-12.39,25.7-26.6,26.6Z" />
    <path class="cls-1" d="m879.25,91.91c-12.25,0-23.2,5.68-30.35,14.55-7.15-8.87-18.1-14.55-30.35-14.55-8.11,0-15.65,2.49-21.89,6.74-.79-3.95-4.28-6.93-8.46-6.93-4.77,0-8.63,3.87-8.63,8.63v33.79h0v40.61c0,4.77,3.87,8.63,8.63,8.63s8.63-3.87,8.63-8.63v-43.87c0-11.98,9.74-21.72,21.72-21.72s21.72,9.74,21.72,21.72v43.87c0,4.77,3.87,8.63,8.63,8.63s8.63-3.87,8.63-8.63v-43.87c0-11.98,9.74-21.72,21.72-21.72s21.72,9.74,21.72,21.72v43.87c0,4.77,3.87,8.63,8.63,8.63s8.63-3.87,8.63-8.63v-43.87c0-21.5-17.49-38.99-38.99-38.99Z" />
    <path class="cls-1" d="m377.46,105.26c-8.96-8.96-20.98-13.75-33.7-13.4-11.26.31-22.06,4.81-30.23,12.57-18.7,17.78-18.98,47.46-.84,65.59,8.65,8.65,20.15,13.41,32.38,13.41,9.3,0,18.18-2.76,25.7-7.88l5.08,5.08c3.37,3.37,8.84,3.37,12.21,0h0c3.37-3.37,3.37-8.84,0-12.21l-5.08-5.08c12.08-17.81,10.24-42.31-5.53-58.08Zm-52.56,52.56c-11.12-11.12-11.12-29.22,0-40.35,5.39-5.39,12.55-8.36,20.17-8.36,7.62,0,14.78,2.97,20.17,8.36,11.12,11.12,11.12,29.22,0,40.35-5.39,5.39-12.55,8.36-20.17,8.36-7.62,0-14.78-2.97-20.17-8.36Z" />
    <g>
      <rect class="cls-1" x="274.09" y="115.75" width="17.27" height="67.65" rx="8.63" ry="8.63" />
      <rect class="cls-1" x="274.09" y="91.72" width="17.27" height="17.27" rx="8.63" ry="8.63" />
    </g>
    <g>
      <rect class="cls-1" x="927.45" y="115.75" width="17.27" height="67.65" rx="8.63" ry="8.63" />
      <rect class="cls-1" x="927.45" y="91.72" width="17.27" height="17.27" rx="8.63" ry="8.63" />
    </g>
    <path class="cls-1" d="m728.56,91.84c-30.44,0-44.19,27.66-44.19,46.81,0,12.09,5.14,23.37,13.72,31.77,8.58,8.39,19.97,13.01,32.06,13.01,13.71,0,26.37-6.02,34.95-16.19,3.56-4.22,2.19-10.68-2.73-13.2h0c-3.57-1.82-7.92-.94-10.52,2.12-5.35,6.28-14.8,9.69-23.29,9.69-16.18,0-28.86-12.71-28.86-24.32h63.57c4.77,0,8.63-3.87,8.63-8.63,0-9.16-3.09-18.17-8.71-25.37-5.68-7.28-15-15.7-34.63-15.7Zm-26.67,32.32c.25-2.81,9.69-17.3,26.67-17.3s26.82,14.07,26.87,17.3h-53.54Z" />
  </g>
  <g>
    <path class="cls-1" d="m113.4,216.88s-.09.05-.14.07c-2.73,1.39-3.32,5.04-1.08,7.14.68.64,1.39,1.26,2.13,1.85,2.08,1.67,5.17,1.11,6.54-1.19l.07-.12c1.14-1.91.63-4.33-1.1-5.73-.51-.41-1.01-.84-1.49-1.29-1.33-1.24-3.3-1.56-4.92-.73Z" />
    <path class="cls-1" d="m133.25,165.01c.38,1,.73,2.01,1.03,3.03.36,1.2,1.46,2.02,2.72,2.02h0s0,0,0,0c1.25,0,2.36-.82,2.72-2.02.3-1.02.65-2.03,1.03-3.03.7-1.81-.59-3.8-2.53-3.86-.81-.03-1.62-.03-2.43,0-1.94.06-3.23,2.05-2.53,3.86Z" />
    <rect class="cls-1" x="132.53" y="204.63" width="8.94" height="24.43" rx="4.47" ry="4.47" />
    <path class="cls-1" d="m64.16,176.94c-.05-.02-.1-.03-.15-.05-2.95-.96-5.92,1.27-5.81,4.37.03.89.09,1.77.19,2.66.29,2.68,2.85,4.52,5.46,3.85l.14-.04c2.16-.55,3.51-2.62,3.27-4.83-.07-.65-.12-1.31-.14-1.97-.06-1.82-1.23-3.44-2.97-4Z" />
    <path class="cls-1" d="m216.42,160.79s.05.09.07.14c1.39,2.73,5.04,3.32,7.14,1.08.64-.68,1.26-1.39,1.85-2.13,1.67-2.08,1.11-5.17-1.19-6.54l-.12-.07c-1.91-1.14-4.33-.63-5.73,1.1-.41.51-.84,1.01-1.29,1.49-1.24,1.33-1.56,3.3-.73,4.92Z" />
    <path class="cls-1" d="m57.48,113.87s-.05-.09-.07-.14c-1.39-2.73-5.04-3.32-7.14-1.08-.64.68-1.26,1.39-1.85,2.13-1.67,2.08-1.11,5.17,1.19,6.54l.12.07c1.91,1.14,4.33.63,5.73-1.1.41-.51.84-1.01,1.29-1.49,1.24-1.33,1.56-3.3.73-4.92Z" />
    <path class="cls-1" d="m114.06,156.03c-.05.11-.11.22-.17.33-.82,1.6-.5,3.56.74,4.86,16.97,17.86,2.27,48.19-22.13,46.1-2.2-.19-4.21,1.22-4.68,3.38l-.06.28c-.56,2.57,1.3,5.02,3.93,5.23,10.5.83,21.12-3.03,28.57-10.56,14.19-13.85,13.74-37.03.77-50.72-2.05-2.17-5.63-1.57-6.97,1.1Z" />
    <rect class="cls-1" x="68.65" y="189.12" width="24.43" height="8.94" rx="4.47" ry="4.47" transform="translate(-113.21 113.89) rotate(-45)" />
    <path class="cls-1" d="m107.68,134.35c-.12.04-.24.08-.36.12-1.72.55-2.87,2.16-2.92,3.96-.62,24.64-32.47,35.69-48.25,16.97-1.42-1.69-3.84-2.12-5.7-.92l-.23.15c-2.22,1.43-2.63,4.47-.92,6.48,2.93,3.44,6.43,6.26,10.41,8.41,23.93,13.19,53.09-5.09,53.67-30.93.07-3.02-2.84-5.19-5.71-4.24Z" />
    <rect class="cls-1" x="45.4" y="133" width="24.43" height="8.94" rx="4.47" ry="4.47" />
    <path class="cls-1" d="m97.51,64.63c.02-.05.03-.11.05-.16.96-2.95-1.27-5.91-4.37-5.8-.89.03-1.77.09-2.66.19-2.68.29-4.51,2.84-3.84,5.46l.04.15c.55,2.15,2.61,3.5,4.82,3.27.65-.07,1.31-.12,1.96-.14,1.82-.06,3.44-1.23,3.99-2.96Z" />
    <path class="cls-1" d="m98.38,131.16c7.8-.77,15.31-4.25,21.05-9.61,2.22-2.07,1.69-5.69-1.03-7.06-.09-.05-.19-.09-.28-.14-1.6-.82-3.56-.5-4.86.74-17.86,16.99-48.2,2.28-46.12-22.12.19-2.2-1.22-4.21-3.38-4.68l-.37-.08c-2.55-.55-4.98,1.26-5.22,3.86-2.05,21.84,18.27,42.12,40.21,39.09Z" />
    <rect class="cls-1" x="76.4" y="69.12" width="8.94" height="24.43" rx="4.47" ry="4.47" transform="translate(-33.83 81.01) rotate(-45)" />
    <path class="cls-1" d="m160.59,58.05s.09-.05.14-.07c2.73-1.39,3.32-5.04,1.08-7.14-.68-.64-1.39-1.26-2.13-1.85-2.08-1.67-5.17-1.11-6.54,1.19l-.07.12c-1.14,1.91-.63,4.33,1.1,5.73.51.41,1.01.84,1.49,1.29,1.33,1.24,3.3,1.56,4.93.73Z" />
    <path class="cls-1" d="m110.02,72.36s0,0,0,0c.55-3.01,1.62-5.93,3.15-8.58,0,0,0,0,0,0,1.53-2.67,3.51-5.07,5.84-7.09,1.71-1.48,2.14-3.96.91-5.87l-.05-.08c-1.45-2.25-4.55-2.75-6.61-1.04-18.36,15.24-16.15,47.1,5.09,58.94,5.18,3.13,11.23,4.9,17.32,5.13,3.1.12,5.34-2.87,4.38-5.82,0-.03-.02-.06-.03-.09-.57-1.75-2.2-2.93-4.04-2.97-16.06-.41-29.35-16.29-25.96-32.54Z" />
    <rect class="cls-1" x="132.53" y="45.87" width="8.94" height="24.43" rx="4.47" ry="4.47" />
    <path class="cls-1" d="m159.92,118.89c.06-.11.11-.22.17-.33.82-1.6.5-3.55-.74-4.86-16.96-17.86-2.25-48.19,22.14-46.1,2.2.19,4.21-1.22,4.68-3.37l.06-.28c.56-2.57-1.3-5.02-3.93-5.23-10.5-.83-21.12,3.03-28.57,10.56-14.19,13.84-13.74,37.02-.78,50.71,2.05,2.17,5.63,1.57,6.97-1.11Z" />
    <path class="cls-1" d="m209.84,97.99c.05.02.1.03.15.05,2.95.96,5.92-1.27,5.81-4.37-.03-.89-.09-1.77-.19-2.66-.29-2.68-2.85-4.52-5.46-3.85l-.14.04c-2.16.55-3.51,2.62-3.27,4.83.07.65.12,1.31.14,1.97.06,1.82,1.23,3.44,2.97,4Z" />
    <rect class="cls-1" x="180.91" y="76.87" width="24.43" height="8.94" rx="4.47" ry="4.47" transform="translate(-.95 160.38) rotate(-45)" />
    <path class="cls-1" d="m166.28,140.59c.14-.05.27-.09.41-.13,1.71-.55,2.87-2.16,2.91-3.96.61-24.71,32.51-35.67,48.26-16.97,1.42,1.68,3.83,2.11,5.69.92l.25-.16c2.21-1.42,2.62-4.46.92-6.46-2.93-3.44-6.44-6.26-10.42-8.42-23.73-13.26-53.21,5.15-53.71,30.96-.06,3.01,2.84,5.17,5.7,4.22Z" />
    <rect class="cls-1" x="204.16" y="133" width="24.43" height="8.94" rx="4.47" ry="4.47" />
    <path class="cls-1" d="m175.6,143.77c-16.62,1.46-30.84,15.69-32.3,32.31-3.12,22.42,18,42.78,40.14,40.11,2.71-.33,4.52-2.95,3.85-5.59h0c-.55-2.16-2.6-3.63-4.81-3.37-24.8,2.98-41.02-28.13-22.43-46.71,18.15-18.24,48.9-2.96,46.81,21.44-.19,2.23,1.35,4.24,3.53,4.71h0c2.66.58,5.21-1.32,5.45-4.02,1.9-21.77-18.37-41.9-40.24-38.88Z" />
    <rect class="cls-1" x="188.66" y="181.38" width="8.94" height="24.43" rx="4.47" ry="4.47" transform="translate(-80.33 193.26) rotate(-45)" />
    <path class="cls-1" d="m160.59,216.88s.09.05.14.07c2.73,1.39,3.32,5.04,1.08,7.14-.68.64-1.39,1.26-2.13,1.85-2.08,1.67-5.17,1.11-6.54-1.19l-.07-.12c-1.14-1.91-.63-4.33,1.1-5.73.51-.41,1.01-.84,1.49-1.29,1.33-1.24,3.3-1.56,4.92-.73Z" />
  </g>
</svg>