<?xml version="1.0" encoding="UTF-8"?>
<svg id="Capa_2" xmlns="http://www.w3.org/2000/svg" xmlns:xlink="http://www.w3.org/1999/xlink" viewBox="0 0 815.04 110.09">
  <defs>
    <style>
      .cls-1 {
        fill: #0063f5;
      }

      .cls-2 {
        fill: url(#linear-gradient-2);
      }

      .cls-3 {
        fill: url(#linear-gradient-3);
      }

      .cls-4 {
        fill: url(#linear-gradient);
      }
    </style>
    <linearGradient id="linear-gradient" x1="0" y1="55.23" x2="29.27" y2="55.23" gradientUnits="userSpaceOnUse">
      <stop offset="0" stop-color="#0068ff"/>
      <stop offset="1" stop-color="#00b2e7"/>
    </linearGradient>
    <linearGradient id="linear-gradient-2" x1="1598.79" y1="1611.65" x2="1641.4" y2="1520.84" gradientTransform="translate(1654.52 -1544.79) rotate(90)" gradientUnits="userSpaceOnUse">
      <stop offset="0" stop-color="#00b2e7"/>
      <stop offset="1" stop-color="#0038ff"/>
    </linearGradient>
    <linearGradient id="linear-gradient-3" x1="1598.27" y1="1611.79" x2="1555.11" y2="1521.23" gradientTransform="translate(1654.52 -1544.79) rotate(90)" xlink:href="#linear-gradient"/>
  </defs>
  <g id="Layer_1">
    <g>
      <g>
        <path class="cls-1" d="M225.78,108.62c-7.46,0-14.05-.94-19.76-2.82-5.72-1.88-10.52-4.72-14.4-8.52-3.88-3.8-6.79-8.52-8.73-14.15-1.94-5.63-2.91-12.15-2.91-19.56V13.03c0-3.85.99-6.74,2.98-8.67,1.99-1.93,4.82-2.89,8.5-2.89s6.66.96,8.65,2.89c1.99,1.93,2.98,4.82,2.98,8.67v50.54c0,8.5,1.94,14.9,5.82,19.19,3.88,4.3,9.5,6.45,16.86,6.45s12.83-2.15,16.71-6.45c3.88-4.3,5.82-10.69,5.82-19.19V13.03c0-3.85.99-6.74,2.98-8.67,1.99-1.93,4.87-2.89,8.65-2.89,3.48,0,6.21.96,8.2,2.89,1.99,1.93,2.98,4.82,2.98,8.67v50.54c0,9.88-1.72,18.18-5.15,24.9-3.43,6.72-8.5,11.76-15.22,15.12-6.71,3.36-15.04,5.04-24.99,5.04Z"/>
        <path class="cls-1" d="M316.77,108.62c-8.85,0-15.46-2.42-19.84-7.26-4.38-4.84-6.56-12.1-6.56-21.79V12.73c0-3.75.99-6.57,2.98-8.45,1.99-1.88,4.72-2.82,8.2-2.82,3.68,0,6.49.94,8.43,2.82,1.94,1.88,2.91,4.69,2.91,8.45v65.95c0,4.05.87,7.04,2.61,8.97,1.74,1.93,4.05,2.89,6.94,2.89.79,0,1.57-.05,2.31-.15.75-.1,1.47-.2,2.16-.3,1.59-.1,2.71.42,3.36,1.56.65,1.14.97,3.43.97,6.89,0,2.87-.6,5.09-1.79,6.67-1.19,1.58-3.03,2.57-5.52,2.96-.9.1-1.99.2-3.28.3-1.29.1-2.59.15-3.88.15Z"/>
        <path class="cls-1" d="M376.74,108.62c-6.86,0-12.6-1.11-17.23-3.33-4.62-2.22-8.03-5.51-10.22-9.86-2.19-4.35-3.28-9.83-3.28-16.45v-28.01h-6.56c-2.68,0-4.8-.72-6.34-2.15-1.54-1.43-2.31-3.48-2.31-6.15s.77-4.69,2.31-6.08c1.54-1.38,3.66-2.08,6.34-2.08h6.56v-11.41c0-3.75.97-6.57,2.91-8.45,1.94-1.88,4.7-2.82,8.28-2.82s6.49.94,8.43,2.82c1.94,1.88,2.91,4.69,2.91,8.45v11.41h13.87c2.88,0,5.07.69,6.56,2.08,1.49,1.38,2.24,3.41,2.24,6.08s-.75,4.72-2.24,6.15c-1.49,1.43-3.68,2.15-6.56,2.15h-13.87v27.12c0,4.15.94,7.24,2.83,9.26,1.89,2.03,4.97,3.04,9.25,3.04,1.49,0,2.91-.15,4.25-.44,1.34-.3,2.46-.44,3.36-.44,1.39-.1,2.56.32,3.5,1.26.94.94,1.42,2.99,1.42,6.15,0,2.47-.37,4.59-1.12,6.37-.75,1.78-2.16,3.01-4.25,3.71-1.29.39-3.08.76-5.37,1.11-2.29.34-4.18.52-5.67.52Z"/>
        <path class="cls-1" d="M413.43,108.33c-3.78,0-6.66-.96-8.65-2.89-1.99-1.93-2.98-4.72-2.98-8.37v-52.61c0-3.65.97-6.45,2.91-8.37,1.94-1.93,4.7-2.89,8.28-2.89s6.16.96,8.05,2.89c1.89,1.93,2.83,4.72,2.83,8.37v7.71h-1.49c1.09-5.93,3.7-10.52,7.83-13.78,4.13-3.26,9.47-5.09,16.04-5.48,2.39-.2,4.25.42,5.59,1.85,1.34,1.43,2.11,3.83,2.31,7.19.1,2.96-.57,5.34-2.01,7.11-1.44,1.78-3.86,2.87-7.24,3.26l-3.43.3c-5.67.5-9.87,2.13-12.6,4.89-2.74,2.77-4.1,6.77-4.1,12v27.57c0,3.66-.95,6.45-2.83,8.37-1.89,1.93-4.72,2.89-8.5,2.89Z"/>
        <path class="cls-1" d="M488.91,108.62c-5.57,0-10.44-1.01-14.62-3.04-4.18-2.02-7.46-4.79-9.84-8.3-2.39-3.51-3.58-7.53-3.58-12.08,0-5.34,1.39-9.53,4.18-12.6,2.78-3.06,7.28-5.28,13.5-6.67,6.21-1.38,14.49-2.07,24.84-2.07h7.91v11.56h-7.76c-5.17,0-9.27.27-12.31.82-3.03.54-5.25,1.48-6.64,2.82-1.39,1.33-2.09,3.09-2.09,5.26,0,2.67.97,4.89,2.91,6.67,1.94,1.78,4.7,2.67,8.28,2.67,2.88,0,5.47-.64,7.76-1.93,2.29-1.28,4.08-3.06,5.37-5.34,1.29-2.27,1.94-4.99,1.94-8.15v-16.9c0-4.35-1-7.43-2.98-9.26-1.99-1.83-5.42-2.74-10.29-2.74-2.59,0-5.44.3-8.58.89-3.13.59-6.59,1.68-10.37,3.26-2.29.89-4.25,1.09-5.89.59-1.64-.49-2.91-1.46-3.8-2.89-.89-1.43-1.34-3.04-1.34-4.82s.5-3.46,1.49-5.04c.99-1.58,2.69-2.76,5.07-3.56,4.57-1.78,8.92-3.04,13.05-3.78,4.13-.74,7.88-1.11,11.26-1.11,7.66,0,14,1.11,19.02,3.33,5.02,2.22,8.75,5.66,11.19,10.3,2.44,4.65,3.65,10.52,3.65,17.64v32.9c0,3.66-.92,6.45-2.76,8.37-1.84,1.93-4.4,2.89-7.68,2.89s-5.99-.96-7.83-2.89c-1.84-1.93-2.76-4.72-2.76-8.37v-5.48l1.04,1.04c-.6,3.26-1.86,6.08-3.8,8.45-1.94,2.37-4.38,4.22-7.31,5.56-2.93,1.33-6.34,2-10.22,2Z"/>
        <path class="cls-1" d="M561.85,107.14c-3.88,0-6.86-1.04-8.95-3.11-2.09-2.08-3.13-5.09-3.13-9.04V14.81c0-3.95,1.04-6.97,3.13-9.04,2.09-2.08,5.07-3.11,8.95-3.11h29.09c17.9,0,31.77,4.52,41.62,13.56,9.84,9.04,14.77,21.91,14.77,38.61,0,8.3-1.27,15.71-3.8,22.23-2.54,6.52-6.22,12.01-11.04,16.45-4.82,4.45-10.69,7.83-17.6,10.15-6.91,2.32-14.89,3.48-23.94,3.48h-29.09ZM572.89,88.32h16.56c5.67,0,10.61-.72,14.84-2.15,4.23-1.43,7.73-3.51,10.52-6.22,2.78-2.72,4.87-6.17,6.26-10.37,1.39-4.2,2.09-9.11,2.09-14.75,0-11.26-2.79-19.64-8.35-25.12-5.57-5.48-14.02-8.23-25.36-8.23h-16.56v66.84Z"/>
        <path class="cls-1" d="M702.07,108.62c-8.65,0-16.09-1.53-22.3-4.59-6.22-3.06-10.99-7.43-14.32-13.12-3.33-5.68-5-12.42-5-20.23s1.62-14.05,4.85-19.64c3.23-5.58,7.68-10,13.35-13.26,5.67-3.26,12.08-4.89,19.24-4.89,5.47,0,10.32.87,14.54,2.59,4.23,1.73,7.88,4.2,10.96,7.41,3.08,3.21,5.42,7.11,7.01,11.71,1.59,4.59,2.39,9.71,2.39,15.34,0,1.88-.6,3.29-1.79,4.22-1.19.94-2.93,1.41-5.22,1.41h-46.69v-11.56h37.44l-2.39,2.08c0-4.05-.6-7.43-1.79-10.15-1.19-2.72-2.91-4.79-5.15-6.22-2.24-1.43-5-2.15-8.28-2.15-3.68,0-6.81.84-9.4,2.52-2.59,1.68-4.58,4.13-5.97,7.34-1.39,3.21-2.09,7.04-2.09,11.49v1.19c0,7.51,1.74,13.04,5.22,16.6,3.48,3.56,8.75,5.34,15.81,5.34,2.39,0,5.09-.3,8.13-.89,3.03-.59,5.94-1.53,8.73-2.82,2.39-1.09,4.42-1.43,6.12-1.04,1.69.4,3.06,1.21,4.1,2.45,1.04,1.24,1.62,2.69,1.72,4.37.1,1.68-.27,3.33-1.12,4.97-.85,1.63-2.26,2.99-4.25,4.08-3.48,1.98-7.36,3.39-11.64,4.22-4.28.84-8.35,1.26-12.23,1.26Z"/>
        <path class="cls-1" d="M777.85,108.33c-2.98,0-5.54-.74-7.68-2.22-2.14-1.48-3.95-3.75-5.45-6.82l-22.38-51.58c-1.1-2.57-1.47-4.96-1.12-7.19.35-2.22,1.42-4,3.21-5.34,1.79-1.33,4.33-2,7.61-2,2.78,0,5,.59,6.64,1.78,1.64,1.19,3.11,3.61,4.4,7.26l17.75,44.31h-4.77l18.2-44.61c1.39-3.36,2.93-5.66,4.62-6.89,1.69-1.23,4.03-1.85,7.01-1.85,2.59,0,4.65.67,6.19,2,1.54,1.33,2.49,3.09,2.83,5.26.35,2.17-.03,4.55-1.12,7.11l-22.97,51.87c-1.29,2.96-3.03,5.19-5.22,6.67-2.19,1.48-4.77,2.22-7.76,2.22Z"/>
      </g>
      <path class="cls-4" d="M27.6,65.92c-1.93-3.18-2.9-6.93-2.9-11.26s.97-8.05,2.9-11.16c.39-.63.84-1.24,1.32-1.84-3.06-2.54-6.99-4.07-11.27-4.07C7.9,37.58,0,45.49,0,55.23s7.9,17.65,17.65,17.65c4.46,0,8.52-1.66,11.62-4.39-.61-.67-.9-1.32-1.67-2.58Z"/>
      <path class="cls-2" d="M63.19,52.11l59.56,27.06c4.48,2.07,7.55,4.36,9.2,6.88,1.65,2.51,2.47,5.99,2.47,10.43,0,3.84-.89,6.91-2.67,9.21-1.78,2.29-4.12,3.7-7.02,4.22-2.9.52-6.07-.04-9.5-1.66l-69.25-34.16c-3.96-1.92-6.93-4.51-8.9-7.76-1.98-3.25-2.97-7.1-2.97-11.54s.99-8.25,2.97-11.42c1.98-3.18,5.01-5.88,9.1-8.1"/>
      <path class="cls-3" d="M40.28,70.23c-2.05-1.53-2.08-1.98-3.33-4.04-1.98-3.25-2.97-7.1-2.97-11.54s.99-8.25,2.97-11.42c1.98-3.18,5.01-5.88,9.1-8.1L114.9,1.85c3.43-1.63,6.63-2.18,9.6-1.66,2.97.52,5.34,2.11,7.12,4.77,1.78,2.66,2.67,6.43,2.67,11.31,0,4.14-.79,7.43-2.37,9.87-1.58,2.44-4.82,4.62-9.69,6.54l-59.16,26.4"/>
    </g>
  </g>
</svg>