<svg version="1.1" id="layer" xmlns="http://www.w3.org/2000/svg" xmlns:xlink="http://www.w3.org/1999/xlink" x="0px" y="0px" viewBox="0 0 652 652" style="enable-background:new 0 0 652 652;" xml:space="preserve">
  <style type="text/css">
    .st0 {
      fill: #ff3200;
    }

    .st1 {
      fill: #231f20;
    }
  </style>
  <g>
    <g>
      <g>
        <g>
          <path d="M85.9,252.9c0,3.3-0.7,6.6-2,9.9s-3.2,6.3-5.7,9c-2.5,2.6-5.6,4.7-9.2,6.5c-3.6,1.6-7.8,2.5-12.4,2.5H32v38H20v-94.5
					h34.6c3.9,0,7.7,0.5,11.5,1.6c3.8,1.1,7.1,2.8,10,5.1c2.9,2.3,5.3,5.3,7.1,8.9C85,243.5,85.9,247.9,85.9,252.9z M73.5,252.5
					c0-5.8-1.7-10.1-5.3-12.9c-3.5-2.8-7.9-4.3-13.2-4.3H32v34.5h23.5c3,0,5.6-0.5,7.9-1.6c2.2-1,4.1-2.4,5.6-4
					c1.5-1.6,2.6-3.5,3.4-5.5S73.5,254.6,73.5,252.5z" />
          <path d="M101,288.9v1.1c0,2.7,0.3,5.2,1.1,7.5c0.7,2.3,1.8,4.4,3.3,6.2c1.5,1.8,3.3,3.2,5.4,4.1c2.2,1,4.7,1.5,7.6,1.5
					c2.2,0,4.7-0.5,7.5-1.6c2.8-1.1,5.4-2.7,7.7-4.7l7.2,8c-3.2,3-6.7,5.3-10.7,6.6c-4,1.4-8,2-12.3,2c-3.5,0-6.8-0.5-10.3-1.5
					c-3.4-0.9-6.5-2.7-9.1-5.3c-2.7-2.5-4.9-6-6.6-10.4s-2.5-10.1-2.5-17.1c0-6.6,0.9-12.2,2.6-16.7c1.7-4.5,4-8,6.6-10.7
					c2.7-2.7,5.8-4.6,9.1-5.7c3.4-1.1,6.6-1.7,9.8-1.7c3.7,0,7.2,0.7,10.4,2c3.3,1.3,6.1,3.3,8.5,5.8c2.4,2.5,4.4,5.6,5.8,9.3
					c1.4,3.6,2.1,7.9,2.1,12.6v8.7L101,288.9L101,288.9z M116.9,261.1c-4.6,0-8.3,1.6-11.1,4.7c-2.8,3.2-4.4,7.7-4.7,13.6h31.7
					c-0.3-6-1.8-10.6-4.6-13.7C125.3,262.7,121.6,261.1,116.9,261.1z" />
          <path d="M181.6,250.9c4.8,0,9.2,0.9,13,2.9c3.8,2,6.8,4.7,9.2,8.4c1.6,2.4,2.7,5.4,3.5,8.9c0.8,3.5,1.1,7.4,1.1,11.7
					c0,5.8-0.3,10.6-0.9,14.6c-0.6,4-1.7,7.3-3.3,9.8c-2.3,4-5.6,7.1-9.8,9.1c-4.2,2.2-9,3.2-14.3,3.2c-4.9,0-9.2-0.9-13-2.5
					c-3.8-1.6-6.8-4.2-9.2-7.7c-1.8-2.8-3.1-6.1-3.9-10c-0.8-3.9-1.1-8.5-1.1-14c0-3.8,0.3-7.3,0.8-10.5c0.5-3.2,1.4-6.1,2.7-8.7
					c2.2-4.9,5.6-8.6,9.9-11.3C170.6,252.2,175.8,250.9,181.6,250.9z M181.3,261.1c-3.4,0-6.3,0.9-8.9,2.5s-4.6,4-5.9,7
					c-1,2.1-1.6,4.3-1.9,6.8c-0.3,2.5-0.4,5.2-0.5,8.2c0,3,0.1,5.7,0.3,8c0.3,2.4,0.8,4.6,1.7,6.6c1.3,2.8,3.1,5.2,5.6,6.7
					c2.4,1.6,5.4,2.4,8.7,2.4c3.6,0,6.8-0.9,9.7-2.8c2.8-1.9,4.9-4.9,6.2-9.1c0.4-1.6,0.8-3.5,0.9-5.6c0.2-2.2,0.2-5,0.2-8.6
					c0-2.6-0.1-4.9-0.3-7c-0.3-2.1-0.7-3.9-1.4-5.5c-1.3-3.4-3.2-5.8-5.7-7.4C187.3,261.8,184.4,261.1,181.3,261.1z" />
          <path d="M229.1,251.4v7.5l0.4,0.2c2.6-3,5.5-5.1,8.6-6.4c3.1-1.3,6.4-1.9,9.7-1.9c4.8,0,8.7,0.9,11.9,2.9c3.1,2,5.6,4.5,7.4,7.8
					c1.8,3.2,3,6.8,3.7,10.9c0.7,4.1,1,8.1,1,12.3c0,4.3-0.3,8.6-1.1,12.9c-0.7,4.2-2.1,7.9-4.1,11.2c-2,3.3-4.7,5.9-8.1,7.9
					c-3.4,2.1-7.7,3-12.9,3c-3.4,0-6.4-0.5-9.1-1.6c-2.8-1-5.2-2.8-7.2-5.1h-0.3v32.8H218v-94.3H229.1z M229.1,285.3
					c0,2.5,0.2,5.2,0.5,7.9c0.3,2.8,1,5.3,2.1,7.6c1,2.2,2.6,4.1,4.6,5.6c2,1.5,4.7,2.2,8.1,2.2c3.5,0,6.3-0.7,8.5-2.1
					c2.1-1.4,3.6-3.2,4.7-5.4s1.8-4.7,2.2-7.5c0.3-2.8,0.5-5.5,0.5-8.2c0-2.6-0.2-5.4-0.4-8.1c-0.3-2.8-0.9-5.4-1.9-7.6
					c-1-2.3-2.5-4.2-4.6-5.7c-2.1-1.5-4.8-2.2-8.4-2.2c-3.5,0-6.2,0.8-8.3,2.3c-2.1,1.6-3.7,3.5-4.8,5.8c-1.1,2.3-1.9,4.8-2.2,7.6
					C229.3,280.2,229.1,282.8,229.1,285.3z" />
          <path d="M298.4,318.7c-4.9,0-8.9-1.1-11.9-3.5c-3.1-2.3-4.7-6.4-4.7-12.2v-83H293v82c0,4.2,2.3,6.4,6.9,6.4h3.3v10.2
					C303.2,318.7,298.4,318.7,298.4,318.7z" />
          <path d="M319.2,288.9v1.1c0,2.7,0.3,5.2,1.1,7.5c0.7,2.3,1.8,4.4,3.3,6.2c1.5,1.8,3.3,3.2,5.4,4.1c2.2,1,4.7,1.5,7.6,1.5
					c2.2,0,4.7-0.5,7.5-1.6c2.8-1.1,5.4-2.7,7.7-4.7l7.2,8c-3.2,3-6.7,5.3-10.7,6.6c-4,1.4-8,2-12.3,2c-3.5,0-6.8-0.5-10.3-1.5
					c-3.4-0.9-6.5-2.7-9.1-5.3c-2.7-2.5-4.9-6-6.6-10.4s-2.5-10.1-2.5-17.1c0-6.6,0.9-12.2,2.6-16.7c1.7-4.5,4-8,6.6-10.7
					c2.7-2.7,5.8-4.6,9.1-5.7c3.4-1.1,6.6-1.7,9.8-1.7c3.7,0,7.2,0.7,10.4,2c3.3,1.3,6.1,3.3,8.5,5.8s4.4,5.6,5.8,9.3
					c1.4,3.6,2.1,7.9,2.1,12.6v8.7L319.2,288.9L319.2,288.9z M335.1,261.1c-4.6,0-8.3,1.6-11.1,4.7c-2.8,3.2-4.4,7.7-4.7,13.6h31.7
					c-0.3-6-1.8-10.6-4.6-13.7C343.5,262.7,339.8,261.1,335.1,261.1z" />
          <path class="st0" d="M439.4,299.5c-2.3,6.3-6.2,11.3-11.6,14.8c-5.4,3.5-11.8,5.3-19.5,5.3c-5.6,0-10.5-0.9-14.8-2.8
					c-4.2-1.9-7.8-4.4-10.5-7.6c-2.8-3.2-4.9-6.9-6.3-11.1c-1.4-4.2-2.1-8.7-2.1-13.5v-26c0-4.6,0.7-9.1,2.1-13.2
					c1.4-4.2,3.5-7.9,6.3-11.1c2.8-3.2,6.4-5.8,10.5-7.7c4.2-1.9,9.1-2.8,14.8-2.8c7.7,0,14.2,1.8,19.4,5.4
					c5.3,3.6,9.1,8.5,11.6,14.5l-11.1,5c-1.6-4.1-4-7.3-7.3-9.8c-3.4-2.4-7.5-3.6-12.3-3.6c-3.7,0-6.9,0.7-9.7,2.1
					c-2.7,1.4-5,3.1-6.8,5.4c-1.8,2.2-3.2,4.7-4.1,7.7c-0.9,2.9-1.4,5.9-1.4,8.8v24.6c0,3.2,0.4,6.2,1.4,9.1
					c0.9,2.9,2.2,5.5,4.1,7.8c1.8,2.2,4.1,4.1,6.8,5.5c2.7,1.4,6,2.1,9.7,2.1c4.9,0,9.1-1.3,12.4-3.9c3.4-2.6,5.9-6,7.4-10.3
					L439.4,299.5z" />
          <path class="st0" d="M454.9,288.9v1.1c0,2.7,0.3,5.2,1.1,7.5c0.7,2.3,1.8,4.4,3.3,6.2c1.5,1.8,3.3,3.2,5.4,4.1
					c2.2,1,4.7,1.5,7.6,1.5c2.2,0,4.7-0.5,7.5-1.6c2.8-1.1,5.4-2.7,7.7-4.7l7.2,8c-3.2,3-6.7,5.3-10.7,6.6c-4,1.4-8,2-12.3,2
					c-3.5,0-6.8-0.5-10.3-1.5c-3.4-0.9-6.5-2.7-9.1-5.3c-2.7-2.5-4.9-6-6.6-10.4s-2.5-10.1-2.5-17.1c0-6.6,0.9-12.2,2.6-16.7
					c1.7-4.5,4-8,6.6-10.7c2.7-2.7,5.8-4.6,9.1-5.7c3.4-1.1,6.6-1.7,9.8-1.7c3.7,0,7.2,0.7,10.4,2c3.3,1.3,6.1,3.3,8.5,5.8
					c2.4,2.5,4.4,5.6,5.8,9.3c1.4,3.6,2.1,7.9,2.1,12.6v8.7L454.9,288.9L454.9,288.9z M470.8,261.1c-4.6,0-8.3,1.6-11.1,4.7
					s-4.4,7.7-4.7,13.6h31.7c-0.3-6-1.8-10.6-4.6-13.7C479.1,262.7,475.4,261.1,470.8,261.1z" />
          <path class="st0" d="M543.1,264.3c-2.6-1.7-5.8-2.6-9.5-2.6c-4.4,0-8.1,1.4-11,4.1c-2.9,2.7-4.3,6.8-4.3,12.3v40.7h-11.1v-67.3
					h11.1v8.5h0.5c2.3-3.5,5-5.9,7.9-7.2c2.9-1.4,6.1-2.1,9.8-2.1c2.3,0,4.5,0.3,6.6,0.8c2,0.5,3.6,1.2,4.9,2.1L543.1,264.3z" />
          <path class="st0" d="M575.8,318.7c-4.6,0-8.4-1.3-11.3-4s-4.3-6.6-4.3-11.7v-42h-8v-9.7h8v-16.7h11.1v16.7h10.4v9.7h-10.4v39.1
					c0,2.1,0.4,4,1.2,5.8c0.8,1.7,2.6,2.7,5.4,2.7h5.9v10.2L575.8,318.7L575.8,318.7z" />
        </g>
      </g>
    </g>
    <g>
      <path d="M143,419.7l-2.8-8.2h-14.8l-2.8,8.2h-4.7l13.1-35.8h3.9l13.1,35.8H143z M135.3,397.5l-2.6-7.7h-0.2l-2.5,7.4l-3.5,10.3
			h12.3L135.3,397.5z" />
      <path d="M155.7,419.7c-1.8,0-3.4-0.4-4.6-1.3c-1.2-0.9-1.7-2.4-1.7-4.6v-31.5h4.2v31.1c0,1.6,0.9,2.4,2.6,2.4h1.2v3.9H155.7z" />
      <path d="M166.2,419.7c-1.8,0-3.4-0.4-4.6-1.3c-1.2-0.9-1.7-2.4-1.7-4.6v-31.5h4.2v31.1c0,1.6,0.9,2.4,2.6,2.4h1.2v3.9H166.2z" />
      <path d="M187.1,419.7c-1.7,0-3.2-0.5-4.3-1.6s-1.6-2.5-1.6-4.5v-15.9h-3v-3.6h3v-6.3h4.2v6.3h3.9v3.6h-3.9v14.8
			c0,0.8,0.2,1.6,0.4,2.2c0.3,0.7,1,1,2.1,1h2.2v3.9H187.1z" />
      <path d="M202.1,393.9c1.4,0,2.7,0.2,4,0.3c1.2,0.3,2.3,0.7,3.3,1.3s1.7,1.5,2.2,2.5c0.5,1,0.9,2.4,0.9,4.1v17.5h-4.2v-2.2
			l-0.1-0.1c-0.5,0.8-1.4,1.4-2.6,1.9c-1.2,0.5-2.8,0.7-4.5,0.7c-2.9,0-5.2-0.7-6.7-2.2c-1.6-1.4-2.3-3.2-2.3-5.4c0-1,0.2-2,0.5-2.8
			c0.3-0.9,0.9-1.7,1.6-2.4s1.5-1.2,2.5-1.6c1-0.4,2.2-0.6,3.5-0.6h8v-2.8c0-1.4-0.4-2.4-1.4-3.1c-0.9-0.7-2.4-1-4.5-1
			c-1.6,0-2.8,0.2-3.8,0.6s-1.7,0.9-2.2,1.6l-2.7-2.8c0.9-1.1,2.2-1.9,3.7-2.5C198.7,394.2,200.4,393.9,202.1,393.9z M196,412.2
			c0,1.2,0.4,2.2,1.4,2.8s2.3,1.1,4.2,1.1c0.9,0,1.6-0.1,2.4-0.2c0.8-0.2,1.5-0.3,2.1-0.8c0.6-0.3,1.1-0.9,1.5-1.5
			c0.3-0.6,0.6-1.4,0.6-2.3v-3h-7c-1.6,0-2.9,0.3-3.8,0.9C196.4,410.1,196,411,196,412.2z" />
      <path d="M222.7,419.7c-1.9,0-3.4-0.4-4.6-1.3c-1.2-0.9-1.7-2.4-1.7-4.6v-31.5h4.2v31.1c0,1.6,0.9,2.4,2.6,2.4h1.2v3.9H222.7z" />
      <path d="M229.8,408.4v0.4c0,1,0.2,2,0.4,2.8s0.7,1.7,1.2,2.3c0.5,0.7,1.2,1.2,2.1,1.6s1.8,0.6,2.8,0.6c0.9,0,1.8-0.2,2.8-0.6
			c1-0.4,2.1-1,2.9-1.8l2.8,3c-1.2,1.1-2.6,2-4.1,2.5c-1.5,0.5-3,0.8-4.7,0.8c-1.3,0-2.6-0.2-3.9-0.5c-1.3-0.3-2.4-1-3.5-2
			c-1-0.9-1.9-2.2-2.5-4c-0.6-1.6-0.9-3.9-0.9-6.5c0-2.5,0.3-4.6,0.9-6.3c0.7-1.7,1.5-3,2.5-4.1c1-1,2.2-1.7,3.5-2.2
			c1.3-0.4,2.5-0.6,3.7-0.6c1.4,0,2.8,0.3,4,0.8s2.3,1.2,3.3,2.2c0.9,0.9,1.6,2.2,2.2,3.5c0.5,1.4,0.8,3,0.8,4.7v3.3L229.8,408.4
			L229.8,408.4z M235.8,397.9c-1.7,0-3.2,0.6-4.2,1.8c-1,1.2-1.6,2.9-1.8,5.2h12c-0.1-2.3-0.7-4.1-1.7-5.2
			C239,398.5,237.6,397.9,235.8,397.9z" />
      <path d="M265,419.7v-15.3c0-2-0.4-3.5-1.2-4.7c-0.9-1.1-2.3-1.7-4.6-1.7c-1.7,0-3.1,0.6-4.3,1.7c-1.1,1.1-1.7,2.7-1.7,4.7v15.3
			H249v-25.6h4.2v3.3h0.2c0.9-1.1,2-2,3.3-2.6c1.3-0.6,2.7-0.9,4.1-0.9c1.2,0,2.3,0.2,3.4,0.5c1,0.3,1.9,0.9,2.7,1.6
			c0.8,0.8,1.4,1.6,1.8,2.8c0.4,1.1,0.6,2.4,0.6,3.9v16.9L265,419.7L265,419.7z" />
      <path d="M280.8,419.7c-1.7,0-3.2-0.5-4.3-1.6s-1.6-2.5-1.6-4.5v-15.9h-3v-3.6h3v-6.3h4.2v6.3h3.9v3.6h-3.9v14.8
			c0,0.8,0.2,1.6,0.4,2.2c0.3,0.7,1,1,2.1,1h2.2v3.9H280.8z" />
      <path d="M305.6,412.1c0,1.2-0.3,2.3-0.8,3.3c-0.5,0.9-1.2,1.8-2.1,2.5c-0.9,0.7-2,1.2-3.2,1.6c-1.2,0.3-2.6,0.6-4.1,0.6
			c-1.8,0-3.7-0.3-5.5-0.9c-1.8-0.6-3.5-1.6-5.1-2.8l2.6-3.3c1.2,1,2.5,1.8,3.8,2.3c1.3,0.5,2.8,0.8,4.5,0.8c1.6,0,2.8-0.3,4-0.9
			c1.1-0.7,1.6-1.6,1.6-3c0-1.3-0.5-2.2-1.6-2.7c-1.1-0.4-2.5-0.8-4.2-0.9c-1-0.1-2.1-0.3-3.1-0.4s-2.1-0.5-2.9-1
			c-0.9-0.5-1.6-1.1-2.2-2.1c-0.6-0.9-0.9-2.1-0.9-3.5c0-1.2,0.3-2.2,0.8-3.2s1.2-1.8,2.1-2.4c0.9-0.7,1.8-1.2,3-1.6
			c1.1-0.3,2.3-0.5,3.5-0.5c2,0,3.7,0.3,5.1,0.7c1.5,0.5,2.8,1.1,4,2.1l-2.2,3.4c-1-0.7-2.1-1.2-3.1-1.6c-1.1-0.4-2.3-0.6-3.7-0.6
			c-1.6,0-2.9,0.3-3.8,1c-0.9,0.7-1.4,1.6-1.4,2.8c0,1.2,0.6,2,1.7,2.4c1.1,0.4,2.9,0.8,5.3,1c0.9,0.1,1.8,0.3,2.8,0.5
			c0.9,0.3,1.8,0.7,2.6,1.2s1.4,1.2,1.9,2.2C305.3,409.8,305.6,410.9,305.6,412.1z" />
      <path d="M311.3,425.6h-2.6l1.6-5.8h-1.5v-5.7h5.3v5.6L311.3,425.6z" />
      <path d="M343.5,419.1c-1.4,0.7-2.9,0.9-4.7,0.9c-1.5,0-2.9-0.3-4.3-0.7c-1.4-0.5-2.6-1.2-3.7-2.3c-1.1-1-2-2.4-2.6-4.1
			c-0.7-1.6-0.9-3.6-0.9-6s0.3-4.4,0.9-6c0.7-1.6,1.6-3,2.6-4.1c1.1-1,2.3-1.8,3.7-2.3c1.4-0.5,2.8-0.7,4.3-0.7
			c1.7,0,3.3,0.3,4.7,0.9c1.4,0.7,2.6,1.5,3.7,2.6l-2.8,3.1c-0.7-0.8-1.5-1.4-2.5-1.9c-0.9-0.4-2-0.7-2.9-0.7
			c-2.4,0-4.2,0.8-5.6,2.2c-1.3,1.5-2,3.7-2,6.8c0,3,0.7,5.3,2,6.7c1.3,1.5,3.2,2.2,5.6,2.2c1.1,0,2.2-0.3,3.1-0.8
			c0.9-0.5,1.7-1.1,2.3-1.8l2.8,3C346.1,417.6,344.9,418.4,343.5,419.1z" />
      <path d="M352.4,408.4v0.4c0,1,0.2,2,0.4,2.8c0.3,0.9,0.7,1.7,1.2,2.3c0.5,0.7,1.2,1.2,2.1,1.6c0.9,0.3,1.8,0.6,2.8,0.6
			c0.9,0,1.8-0.2,2.8-0.6c1-0.4,2.1-1,2.9-1.8l2.8,3c-1.2,1.1-2.6,2-4.1,2.5c-1.5,0.5-3,0.8-4.7,0.8c-1.3,0-2.6-0.2-3.9-0.5
			c-1.3-0.3-2.4-1-3.5-2c-1-0.9-1.9-2.2-2.5-4c-0.6-1.6-0.9-3.9-0.9-6.5c0-2.5,0.3-4.6,0.9-6.3c0.7-1.7,1.5-3,2.5-4.1
			s2.2-1.7,3.5-2.2c1.3-0.4,2.5-0.6,3.7-0.6c1.4,0,2.8,0.3,4,0.8s2.3,1.2,3.3,2.2c0.9,0.9,1.6,2.2,2.2,3.5s0.8,3,0.8,4.7v3.3
			L352.4,408.4L352.4,408.4z M358.4,397.9c-1.7,0-3.2,0.6-4.2,1.8s-1.6,2.9-1.8,5.2h12c-0.1-2.3-0.7-4.1-1.7-5.2
			C361.5,398.5,360.1,397.9,358.4,397.9z" />
      <path d="M385.8,399.1c-1-0.7-2.2-0.9-3.6-0.9c-1.6,0-3.1,0.5-4.1,1.6c-1.1,1-1.6,2.6-1.6,4.7v15.5h-4.2v-25.6h4.2v3.3h0.2
			c0.9-1.3,1.9-2.2,3-2.8s2.3-0.8,3.7-0.8c0.9,0,1.7,0.1,2.5,0.3c0.8,0.2,1.4,0.4,1.9,0.8L385.8,399.1z" />
      <path d="M396.1,419.7c-1.7,0-3.2-0.5-4.3-1.6s-1.6-2.5-1.6-4.5v-15.9h-3v-3.6h3v-6.3h4.2v6.3h3.9v3.6h-3.9v14.8
			c0,0.8,0.2,1.6,0.4,2.2c0.3,0.7,1,1,2.1,1h2.2v3.9H396.1z" />
      <path d="M402.9,388v-4.1h4.2v4.1H402.9z M402.9,419.7v-25.6h4.2v25.6H402.9z" />
      <path d="M425.3,419.7v-21.8h-8.2v21.8h-4.2v-21.8h-3.1v-3.7h3.1V390c0-1.6,0.3-2.9,0.7-4.1c0.5-1,1.1-1.9,2-2.5
			c0.8-0.6,1.7-1,2.8-1.3c1-0.3,2.2-0.3,3.4-0.3c3.5,0,6.3,1.1,8.2,3.3l-2.8,2.8c-0.6-0.7-1.3-1.2-2.2-1.6c-0.9-0.4-2-0.6-3.4-0.6
			c-2.8,0-4.3,1.4-4.3,4.1v4.2h12.4v25.6L425.3,419.7L425.3,419.7z" />
      <path d="M437.7,408.4v0.4c0,1,0.2,2,0.4,2.8c0.3,0.9,0.7,1.7,1.2,2.3c0.5,0.7,1.2,1.2,2.1,1.6c0.9,0.3,1.8,0.6,2.8,0.6
			c0.9,0,1.8-0.2,2.8-0.6c1-0.4,2.1-1,2.9-1.8l2.8,3c-1.2,1.1-2.6,2-4.1,2.5c-1.5,0.5-3,0.8-4.7,0.8c-1.3,0-2.6-0.2-3.9-0.5
			c-1.3-0.3-2.4-1-3.5-2c-1-0.9-1.9-2.2-2.5-4c-0.6-1.6-0.9-3.9-0.9-6.5c0-2.5,0.3-4.6,0.9-6.3c0.7-1.7,1.5-3,2.5-4.1
			s2.2-1.7,3.5-2.2c1.3-0.4,2.5-0.6,3.7-0.6c1.4,0,2.8,0.3,4,0.8c1.2,0.5,2.3,1.2,3.3,2.2c0.9,0.9,1.6,2.2,2.2,3.5s0.8,3,0.8,4.7
			v3.3L437.7,408.4L437.7,408.4z M443.7,397.9c-1.7,0-3.2,0.6-4.2,1.8s-1.6,2.9-1.8,5.2h12c-0.1-2.3-0.7-4.1-1.7-5.2
			C446.8,398.5,445.4,397.9,443.7,397.9z" />
      <path d="M472.5,419.7v-2.5l-0.2-0.1c-1.1,1.1-2.3,1.8-3.5,2.2c-1.2,0.4-2.4,0.6-3.7,0.6c-1.8,0-3.3-0.3-4.5-1
			c-1.1-0.7-2.1-1.6-2.8-2.8c-0.7-1.2-1.1-2.5-1.3-4.1c-0.3-1.6-0.3-3.2-0.3-4.9c0-1.6,0.2-3.3,0.4-4.8c0.3-1.6,0.8-3,1.6-4.2
			c0.8-1.2,1.7-2.2,3-3c1.3-0.8,2.9-1.1,4.9-1.1c1.3,0,2.4,0.2,3.5,0.6c1.1,0.4,2,1,2.6,1.9h0.1v-14.2h4.2v37.4H472.5L472.5,419.7z
			 M472.5,406.9c0-0.9-0.1-2-0.2-3c-0.1-1-0.3-2-0.8-2.8c-0.4-0.9-0.9-1.6-1.7-2.2c-0.8-0.5-1.8-0.9-3.1-0.9s-2.4,0.3-3.2,0.8
			s-1.4,1.2-1.8,2.1c-0.4,0.9-0.7,1.8-0.9,2.8c-0.2,1-0.2,2.1-0.2,3.1c0,1.2,0.1,2.3,0.2,3.4c0.1,1,0.3,2,0.8,2.8
			c0.4,0.9,0.9,1.5,1.7,2s1.8,0.7,3.1,0.7s2.3-0.3,3.1-0.9c0.8-0.6,1.4-1.3,1.8-2.2c0.4-0.9,0.7-1.8,0.9-2.9
			C472.4,408.8,472.5,407.9,472.5,406.9z" />
      <path d="M481,419.7V414h5.3v5.7H481z" />
    </g>
    <g>
      <path class="st1" d="M620,230c0,1.6-0.3,3.2-0.9,4.6c-0.6,1.4-1.4,2.6-2.3,3.6c-1,1-2.2,1.8-3.5,2.4c-1.4,0.6-2.8,0.9-4.5,0.9
			c-1.6,0-3-0.3-4.4-0.9c-1.4-0.6-2.6-1.4-3.6-2.4c-1-1-1.8-2.2-2.3-3.6c-0.6-1.4-0.9-2.9-0.9-4.6c0-1.6,0.3-3.2,0.9-4.6
			c0.6-1.4,1.4-2.7,2.3-3.7c1-1,2.2-1.8,3.6-2.4c1.4-0.6,2.8-0.9,4.4-0.9c1.6,0,3.1,0.3,4.5,0.9s2.6,1.4,3.5,2.4
			c1,1,1.8,2.2,2.3,3.7C619.8,226.9,620,228.3,620,230z M617.9,230c0-1.4-0.3-2.6-0.7-3.8c-0.4-1.1-1.1-2.2-1.9-3
			c-0.8-0.9-1.7-1.5-2.8-2c-1.1-0.5-2.3-0.7-3.6-0.7c-1.3,0-2.5,0.3-3.6,0.7c-1.1,0.5-2.1,1.1-2.8,2s-1.5,1.8-1.9,3
			c-0.4,1.1-0.7,2.4-0.7,3.8c0,1.3,0.3,2.6,0.7,3.7c0.4,1.1,1.1,2.2,1.9,3c0.8,0.9,1.7,1.5,2.8,2c1.1,0.5,2.3,0.7,3.6,0.7
			c1.3,0,2.5-0.3,3.6-0.7c1.1-0.5,2.1-1.1,2.8-2c0.8-0.9,1.5-1.8,1.9-3C617.6,232.6,617.9,231.4,617.9,230z M609.1,231.1h-2.2v5.6
			h-2.2v-13.4h5.4c1,0,2,0.3,2.8,1c0.8,0.7,1.1,1.6,1.1,2.8c0,0.9-0.3,1.6-0.7,2.2c-0.4,0.6-1,1.1-1.8,1.4l3,5.9h-2.5L609.1,231.1z
			 M606.8,225.4v3.6h2.8c0.6,0,1.1-0.2,1.5-0.5c0.3-0.3,0.6-0.8,0.6-1.4c0-1.2-0.7-1.7-2-1.7C609.7,225.4,606.8,225.4,606.8,225.4z" />
    </g>
  </g>
</svg>