<svg xmlns="http://www.w3.org/2000/svg" viewBox="0 0 1200 628" version="1.1">
  <path d="M 462.020 182.284 C 457.726 184.457, 457.031 187.372, 457.015 203.250 L 457 218 449.955 218 L 442.909 218 440.455 220.455 L 438 222.909 438 227 L 438 231.091 440.455 233.545 L 442.909 236 449.955 236 L 457 236 457 281.935 C 457 309.942, 457.388 328.890, 457.994 330.483 C 460.238 336.385, 472.293 337.685, 476.748 332.506 L 479 329.888 479 282.944 L 479 236 501.889 236 L 524.778 236 526.988 234.211 C 528.485 232.998, 529.367 230.926, 529.721 227.787 L 530.243 223.152 527.667 220.576 L 525.091 218 502.045 218 L 479 218 479 202.423 L 479 186.846 476.077 183.923 L 473.154 181 468.827 181.015 C 466.447 181.023, 463.384 181.594, 462.020 182.284 M 45.500 183.053 C 22.656 185.283, 8.586 192.615, 2.863 205.273 L 0.500 210.500 0.500 257 L 0.500 303.500 2.320 308.720 C 4.820 315.888, 11.659 323.223, 19.315 326.948 C 33.928 334.057, 46.432 335.186, 106.223 334.797 L 151.946 334.500 154.223 332.222 L 156.500 329.944 156.500 325.077 C 156.500 321.765, 155.916 319.564, 154.671 318.189 L 152.843 316.169 101.171 315.731 L 49.500 315.293 43.014 313.603 C 34.823 311.469, 28.427 307.748, 25.941 303.671 L 24.007 300.500 24.007 257.500 L 24.007 214.500 26.030 211.183 C 28.522 207.095, 35.975 203.511, 45 202.060 C 48.892 201.434, 71.663 201.012, 101.750 201.008 L 152 201 153.944 199.056 C 158.341 194.659, 157.268 185.959, 152 183.294 L 149.500 182.029 101.500 182.151 C 75.100 182.218, 49.900 182.624, 45.500 183.053 M 551.378 191.437 C 546.921 193.377, 545 196.640, 545 202.268 L 545 207.091 547.388 209.479 C 550.261 212.352, 555.145 213.402, 562.714 212.774 L 568.336 212.308 571.168 209.138 L 574 205.968 574 201.619 C 574 196.173, 571.250 192.441, 566.205 191.040 C 561.162 189.640, 555.137 189.801, 551.378 191.437 M 221 218.685 C 201.389 221.117, 188.264 228.709, 182.637 240.878 L 180.500 245.500 180.500 276 L 180.500 306.500 182.863 311.727 C 187.496 321.974, 198.838 329.344, 215 332.609 L 223.500 334.326 242.635 334.413 L 261.771 334.500 263.866 332.613 C 268.415 328.515, 267.387 319.167, 262.164 317.135 C 260.699 316.565, 250.275 315.942, 239 315.751 L 218.500 315.404 212.591 312.952 C 209.243 311.562, 205.777 309.278, 204.591 307.678 L 202.500 304.857 202.151 295.928 L 201.801 287 265.977 287 L 330.154 287 333.077 284.077 L 336 281.154 335.956 262.327 L 335.912 243.500 334.563 239.718 C 331.283 230.525, 323.901 224.216, 312.305 220.696 L 305.500 218.631 265 218.441 C 242.725 218.337, 222.925 218.447, 221 218.685 M 391.500 219.479 C 373.271 222.861, 361.914 231.848, 359.062 245.148 C 357.680 251.591, 357.620 326.870, 358.994 330.483 C 361.125 336.090, 372.591 337.612, 377.557 332.947 L 379.917 330.730 380.208 290.115 L 380.500 249.500 382.551 246 C 386.650 239.006, 396.566 236.022, 415.750 236.008 L 426 236 428 234 L 430 232 430 227.635 C 430 224.733, 429.305 222.386, 427.927 220.635 L 425.855 218 412.177 218.090 C 404.655 218.140, 395.350 218.765, 391.500 219.479 M 555.026 225.308 C 553.115 225.964, 550.978 227.625, 550.276 229 L 549 231.500 549.250 281.146 L 549.500 330.791 551.387 332.876 C 553.876 335.626, 559.240 336.544, 564.174 335.066 L 568.155 333.873 569.605 330.403 L 571.055 326.932 570.778 278.488 L 570.500 230.044 568 227.634 C 564.927 224.672, 559.643 223.724, 555.026 225.308 M 221 237.106 C 214.003 238.298, 207.183 241.704, 204.552 245.320 L 202.500 248.141 202.156 258.070 L 201.813 268 258.520 268 L 315.227 268 314.813 257.750 C 314.305 245.188, 312.921 242.124, 306.277 238.852 L 301.500 236.500 264 236.335 C 243.375 236.244, 224.025 236.591, 221 237.106" stroke="none" fill="#fc4c04" fill-rule="evenodd" />
  <path d="M 605 182.653 C 604.175 182.970, 602.938 183.939, 602.250 184.806 L 601 186.382 601 258.517 L 601 330.651 603.261 332.776 C 607.897 337.130, 619.134 336.502, 622.497 331.701 L 624 329.555 624 304.342 L 624 279.129 682.750 278.730 L 741.500 278.330 749 276.598 C 764.771 272.955, 775.988 265.433, 780.681 255.353 L 782.474 251.500 782.487 230 L 782.500 208.500 780.154 203.779 C 775.427 194.270, 766.096 188.438, 749.731 184.764 L 740.500 182.691 673.500 182.383 C 636.650 182.214, 605.825 182.335, 605 182.653 M 1103.334 184.005 C 1084.997 186.688, 1074.025 194.868, 1070.532 208.460 L 1069 214.420 1069.015 271.460 L 1069.029 328.500 1070.276 330.963 C 1072.909 336.166, 1083.638 337.362, 1088.056 332.944 L 1090 331 1090 283.500 L 1090 236 1112.927 236 L 1135.855 236 1137.927 233.365 C 1139.183 231.769, 1140 229.260, 1140 227 C 1140 224.740, 1139.183 222.231, 1137.927 220.635 L 1135.855 218 1113.427 218 L 1091 218 1091 215.148 C 1091 211.170, 1094.761 206.058, 1099.500 203.595 L 1103.500 201.516 1119.839 201.008 L 1136.179 200.500 1138.089 198.139 C 1139.246 196.709, 1140 194.227, 1140 191.844 L 1140 187.909 1137.545 185.455 L 1135.091 183 1121.795 183.125 C 1114.483 183.193, 1106.175 183.590, 1103.334 184.005 M 1170.137 184.369 C 1165.155 186.172, 1159.014 191.757, 1156.903 196.406 C 1155.773 198.894, 1155.035 202.827, 1155.022 206.434 C 1154.982 217.298, 1161.187 225.514, 1171.774 228.612 L 1177.047 230.156 1182.200 229.051 C 1189.184 227.553, 1193.685 224.565, 1197.121 219.148 L 1200 214.608 1200 205.882 L 1200 197.155 1196.743 192.828 C 1190.597 184.661, 1179.276 181.062, 1170.137 184.369 M 1170 191.246 C 1164.270 194.307, 1161.039 199.722, 1161.016 206.300 C 1160.989 214.390, 1166.027 220.853, 1174.045 223.012 L 1178 224.077 1181.955 223.012 C 1200.594 217.993, 1198.407 191.018, 1179.220 189.271 L 1174.500 188.841 1170 191.246 M 1170 205 L 1170 217 1172 217 L 1174 217 1174 212.437 L 1174 207.873 1177.250 208.187 L 1180.500 208.500 1181.845 212.750 L 1183.190 217 1185.497 217 L 1187.804 217 1186.399 212.330 C 1185.626 209.762, 1184.786 207.452, 1184.532 207.199 C 1184.278 206.945, 1184.730 205.796, 1185.535 204.646 C 1187.596 201.704, 1187.355 197.355, 1185 195 L 1183 193 1176.500 193 L 1170 193 1170 205 M 1174 200.560 L 1174 204.121 1177.750 203.810 L 1181.500 203.500 1181.813 200.250 L 1182.127 197 1178.063 197 L 1174 197 1174 200.560 M 624 229.955 L 624 259 679.951 259 C 717.046 259, 737.687 258.626, 741.201 257.892 C 748.199 256.428, 755.238 252.560, 757.321 249.034 L 759 246.191 759 229.478 L 759 212.765 755.222 208.987 C 752.902 206.666, 749.335 204.505, 745.972 203.383 L 740.500 201.557 682.250 201.234 L 624 200.910 624 229.955 M 836 219.664 C 820.360 222.736, 808.758 231.341, 805.510 242.279 L 804 247.363 804 288.547 L 804 329.730 806.043 332.328 C 809.817 337.125, 820.943 336.775, 824.464 331.748 L 826 329.555 826 289.425 L 826 249.296 828.250 245.990 C 829.487 244.172, 831.625 241.853, 833 240.839 C 836.796 238.037, 848.243 236.037, 860.595 236.017 L 871.690 236 873.595 233.895 L 875.500 231.790 875.500 226.807 L 875.500 221.823 873.139 219.912 L 870.778 218 857.139 218.095 C 849.609 218.148, 840.141 218.851, 836 219.664 M 923.512 219.621 C 907.406 222.528, 895.651 230.551, 891.417 241.528 L 889.500 246.500 889.500 277 L 889.500 307.500 891.863 312.727 C 896.438 322.845, 906.154 329.249, 922.176 332.704 L 930.500 334.500 967 334.467 L 1003.500 334.434 1010.828 332.755 C 1025.738 329.337, 1035.707 322.525, 1040.137 312.727 L 1042.500 307.500 1042.819 279.295 L 1043.138 251.089 1041.574 244.981 C 1038.643 233.541, 1031.332 226.237, 1018.653 222.082 C 1007.962 218.579, 1000.410 218.013, 965.500 218.097 L 931.500 218.179 923.512 219.621 M 930.141 237.124 C 927.194 237.614, 922.694 239.041, 920.141 240.295 L 915.500 242.575 913.217 247.037 L 910.933 251.500 911.217 277.679 L 911.500 303.858 913.594 306.679 C 916.555 310.668, 922.386 313.688, 929.528 314.931 C 937.365 316.296, 995.942 316.338, 1003.083 314.984 C 1010.238 313.627, 1015.023 311.027, 1017.750 307.015 L 1020 303.704 1020 275.487 L 1020 247.270 1017.905 244.607 C 1015.112 241.056, 1009.720 238.419, 1002.535 237.091 C 995.480 235.787, 938.030 235.813, 930.141 237.124 M 169.418 381.918 C 165.803 383.469, 162.283 388.628, 161.563 393.429 L 160.877 398 158.939 398 L 157 398 157 401 L 157 404 159 404 L 161 404 161 418.500 L 161 433 165 433 L 169 433 169 418.500 L 169 404 173 404 L 177 404 177 401 L 177 398 173 398 L 169 398 169 394.500 C 169 392.276, 169.767 390.233, 171.104 388.896 L 173.208 386.792 176.007 387.351 L 178.805 387.911 179.451 385.338 C 179.807 383.922, 179.888 382.554, 179.631 382.298 C 178.664 381.331, 171.415 381.061, 169.418 381.918 M 569 407.500 L 569 433 572.500 433 L 576 433 576 407.500 L 576 382 572.500 382 L 569 382 569 407.500 M 896 407.500 L 896 433 899.500 433 L 903 433 903 407.500 L 903 382 899.500 382 L 896 382 896 407.500 M 1013 391.466 L 1013 400.933 1009.455 398.841 L 1005.909 396.749 1001.791 397.301 C 988.497 399.084, 982.713 416.946, 991.618 428.718 C 995.952 434.446, 1005.546 435.505, 1011.399 430.901 L 1014 428.855 1014 430.927 L 1014 433 1017.250 433.001 L 1020.500 433.001 1020.217 407.501 L 1019.934 382 1016.467 382 L 1013 382 1013 391.466 M 2.750 384.716 L -0 385.133 -0 409.066 L 0 433 3.500 433 L 7 433 7 423.500 L 7 414 12.532 414 C 19.386 414, 23.789 412.228, 27.297 408.059 L 30 404.847 30 398.958 L 30 393.070 27.001 389.654 C 22.715 384.772, 14.040 383.006, 2.750 384.716 M 358.239 384.750 C 357.545 384.983, 356.516 386.035, 355.953 387.087 C 353.654 391.384, 359.858 395.286, 362.989 391.513 C 365.598 388.369, 362.135 383.439, 358.239 384.750 M 643 409 L 643 433 646.500 433 L 650 433 650 423.655 L 650 414.310 651.829 412.655 C 652.835 411.745, 653.882 411, 654.157 411 C 654.432 411, 657.981 415.950, 662.045 422 L 669.434 433 673.758 433 L 678.082 433 668.731 419.135 L 659.379 405.270 667.690 395.423 C 672.260 390.007, 676 385.446, 676 385.288 C 676 385.130, 674.081 385, 671.735 385 L 667.469 385 658.985 395.583 L 650.500 406.166 650.216 395.583 L 649.932 385 646.466 385 L 643 385 643 409 M 7 398.883 L 7 407.767 9.580 408.260 C 13.494 409.008, 19.289 407.359, 21.250 404.939 C 23.165 402.574, 23.565 396.924, 22.021 394.039 C 20.804 391.765, 15.922 390, 10.851 390 L 7 390 7 398.883 M 67.077 399.589 L 64 402.178 64 400.089 L 64 398 60.500 398 L 57 398 57 415.500 L 57 433 61 433 L 65 433 65 421.146 L 65 409.292 67.452 406.646 C 68.868 405.119, 70.982 404, 72.452 404 L 75 404 75 400.500 L 75 397 72.577 397 C 71.244 397, 68.769 398.165, 67.077 399.589 M 108.401 398.905 C 103.367 401.192, 100.237 405.408, 99.115 411.414 C 97.013 422.664, 102.635 432.073, 112.326 433.526 C 124.745 435.388, 134.193 425.717, 132.653 412.718 C 131.903 406.388, 128.640 401.527, 123.434 398.985 C 118.382 396.518, 113.712 396.493, 108.401 398.905 M 209.500 398.357 C 200.489 402.526, 196.467 414.826, 200.914 424.617 C 204.039 431.499, 211.084 434.720, 220.453 433.549 C 227.089 432.720, 228.425 431.828, 227.650 428.743 L 227.030 426.271 222.652 427.272 C 214.412 429.158, 208.069 426.211, 206.466 419.750 L 205.783 417 217.892 417 L 230 417 229.998 412.750 C 229.997 407.685, 227.498 402.373, 223.864 399.711 C 220.480 397.232, 213.379 396.563, 209.500 398.357 M 264 397.704 C 263.175 398.004, 261.262 399.403, 259.750 400.812 L 257 403.374 257 407.513 L 257 411.651 259.250 413.727 C 260.488 414.869, 263.642 416.799, 266.260 418.016 L 271.019 420.229 271.657 422.770 L 272.295 425.311 270.456 426.656 C 268.258 428.263, 264.150 428.388, 260.398 426.961 L 257.666 425.922 256.848 427.211 C 254.981 430.154, 255.989 431.920, 260.179 433.048 C 266.222 434.675, 272.722 433.432, 276.163 429.991 L 279 427.154 278.965 423.827 C 278.910 418.703, 276.718 415.826, 270.352 412.526 C 264.409 409.446, 262.855 407.084, 265.040 404.452 C 266.443 402.761, 271.274 402.541, 274.075 404.040 L 276.019 405.080 277.009 402.475 C 278.307 399.063, 278.450 399.352, 274.851 398.098 C 271.562 396.951, 266.566 396.770, 264 397.704 M 313 397.704 C 312.175 398.004, 310.262 399.403, 308.750 400.812 L 306 403.374 306 407.513 L 306 411.651 308.250 413.727 C 309.488 414.869, 312.642 416.799, 315.260 418.016 L 320.019 420.229 320.657 422.770 L 321.295 425.311 319.456 426.656 C 317.258 428.263, 313.150 428.388, 309.398 426.961 L 306.666 425.922 305.848 427.211 C 303.981 430.154, 304.989 431.920, 309.179 433.048 C 315.222 434.675, 321.722 433.432, 325.163 429.991 L 328 427.154 327.965 423.827 C 327.910 418.703, 325.718 415.826, 319.352 412.526 C 313.409 409.446, 311.855 407.084, 314.040 404.452 C 315.443 402.761, 320.274 402.541, 323.075 404.040 L 325.019 405.080 326.009 402.475 C 327.307 399.063, 327.450 399.352, 323.851 398.098 C 320.562 396.951, 315.566 396.770, 313 397.704 M 400.970 399.250 C 384.721 407.459, 390.286 434, 408.256 434 C 410.082 434, 413.580 432.988, 416.030 431.750 C 432.711 423.323, 426.609 397.047, 407.962 397.006 C 406.566 397.003, 403.420 398.012, 400.970 399.250 M 466.021 398.116 C 464.657 398.660, 462.744 399.826, 461.771 400.708 L 460 402.310 460 400.155 L 460 398 456.383 398 L 452.767 398 453.370 400.250 C 453.701 401.488, 453.979 409.363, 453.986 417.750 L 454 433 457.500 433 L 461 433 461 421.056 L 461 409.112 463.250 406.593 C 466.482 402.976, 469.998 402.424, 473.293 405.016 L 476 407.145 476 420.073 L 476 433 480.098 433 L 484.196 433 483.822 419.750 L 483.448 406.500 481.658 403.171 C 478.884 398.015, 471.919 395.763, 466.021 398.116 M 518.012 398.306 C 514.464 399.521, 513.336 401.467, 514.834 403.789 L 515.666 405.078 518.398 404.039 C 524.608 401.678, 530.121 403.217, 531.445 407.682 L 532.092 409.864 527.296 410.543 C 524.658 410.916, 520.594 412.044, 518.263 413.049 L 514.027 414.876 512.381 418.327 C 509.037 425.341, 513.071 432.663, 520.856 433.708 L 524.909 434.251 528.491 432.138 L 532.072 430.025 532.643 431.512 C 532.966 432.355, 534.469 433, 536.107 433 L 539 433 538.998 420.250 L 538.997 407.500 537.248 404 C 534.187 397.872, 526.194 395.506, 518.012 398.306 M 714.500 398.549 C 712.850 399.395, 710.938 400.828, 710.250 401.734 L 709 403.382 709 400.691 L 709 398 706 398 L 703 398 703 415.500 L 703 433 706.500 433 L 710 433 710.015 421.750 C 710.024 414.694, 710.501 409.568, 711.294 408 C 712.932 404.762, 717.167 402.753, 720.559 403.604 C 724.656 404.632, 726 409.170, 726 421.968 L 726 433 729.500 433 L 733 433 733 420.468 C 733 406.054, 731.860 402.104, 726.810 399.026 C 722.859 396.617, 718.594 396.452, 714.500 398.549 M 769.907 399.294 L 765.500 401.588 763.187 406.044 L 760.874 410.500 761.212 417.110 L 761.550 423.721 764.258 427.271 C 765.873 429.389, 768.771 431.511, 771.441 432.531 L 775.916 434.240 780.500 433.552 C 785.834 432.752, 791.566 428.282, 793.649 423.298 C 795.711 418.362, 795.334 411.086, 792.750 405.962 L 790.500 401.500 786.038 399.250 C 780.357 396.385, 775.471 396.398, 769.907 399.294 M 940.044 399.185 L 935.588 401.500 933.294 405.907 C 930.525 411.227, 930.228 419.570, 932.627 424.626 C 935.843 431.403, 943.074 434.721, 952.157 433.586 C 959.113 432.717, 960.276 431.948, 959.473 428.749 L 958.830 426.188 955.672 427.094 C 946.315 429.778, 938 425.712, 938 418.453 L 938 417 950 417 L 962 417 961.978 413.250 C 961.949 408.318, 958.821 401.584, 955.569 399.453 C 954.140 398.517, 951.065 397.553, 948.736 397.311 L 944.500 396.871 940.044 399.185 M 1058.450 398.354 C 1051.697 401.412, 1047.231 410.384, 1048.442 418.461 C 1050.201 430.189, 1060.613 436.171, 1070.265 430.998 L 1074 428.996 1074 430.849 C 1074 439.855, 1065.723 444.418, 1056.430 440.535 L 1052.924 439.070 1051.955 441.619 C 1050.650 445.051, 1051.167 445.601, 1057.032 447.008 C 1066.295 449.230, 1075.161 446.279, 1078.701 439.794 L 1080.500 436.500 1080.826 417.250 L 1081.153 398 1078.076 398 L 1075 398 1075 400.030 L 1075 402.060 1072.154 399.955 C 1068.546 397.288, 1062.393 396.569, 1058.450 398.354 M 1118.044 399.185 L 1113.588 401.500 1111.294 405.907 C 1108.629 411.027, 1108.224 419.207, 1110.379 424.364 C 1113.174 431.054, 1121.046 434.724, 1130.157 433.586 C 1137.202 432.706, 1138.281 431.966, 1137.435 428.595 L 1136.753 425.881 1135.127 426.551 C 1131.653 427.982, 1124.910 428.205, 1121.969 426.987 C 1118.947 425.736, 1116 421.570, 1116 418.550 L 1116 417 1128 417 L 1140 417 1139.978 413.250 C 1139.949 408.318, 1136.821 401.584, 1133.569 399.453 C 1132.140 398.517, 1129.065 397.553, 1126.736 397.311 L 1122.500 396.871 1118.044 399.185 M 356 415.500 L 356 433 359.500 433 L 363 433 363 415.500 L 363 398 359.500 398 L 356 398 356 415.500 M 819 398.895 C 819 399.775, 819.751 402.348, 825.964 422.750 L 829.086 433 832.352 433 L 835.617 433 839.656 420.481 L 843.695 407.962 847.347 419.356 C 849.356 425.623, 851 431.284, 851 431.936 C 851 432.692, 852.343 433.008, 854.714 432.810 L 858.428 432.500 863.700 416 C 866.600 406.925, 868.979 399.163, 868.987 398.750 C 868.994 398.337, 867.457 398, 865.571 398 L 862.142 398 860.630 403.250 C 859.799 406.137, 858.341 411.425, 857.390 415 C 855.671 421.465, 854 424.849, 854 421.865 C 854 421.021, 852.409 415.306, 850.465 409.165 L 846.929 398 843.933 398 C 842.285 398, 840.751 398.563, 840.524 399.250 C 840.297 399.938, 838.442 405.800, 836.400 412.279 L 832.689 424.057 830.300 414.779 C 828.987 409.675, 827.464 403.813, 826.917 401.750 L 825.923 398 822.461 398 C 820.558 398, 819 398.403, 819 398.895 M 110.656 404.133 C 106.811 406.368, 104.794 415.699, 106.939 421.339 C 110.002 429.397, 119.684 430.380, 123.490 423.020 C 126.584 417.035, 124.680 406.505, 120.055 404.030 C 117.587 402.709, 113.020 402.759, 110.656 404.133 M 209.783 404.750 C 208.197 406.568, 206 410.450, 206 411.434 C 206 411.745, 209.825 412, 214.500 412 L 223 412 223 410.135 C 223 409.109, 222.067 407.084, 220.927 405.635 L 218.855 403 215.082 403 C 212.738 403, 210.732 403.662, 209.783 404.750 M 403.750 404.080 C 397.405 407.776, 397.539 423.542, 403.945 426.970 C 408.514 429.416, 414.320 427.327, 416.883 422.316 C 419.613 416.978, 417.388 406.348, 413.055 404.030 C 410.623 402.728, 406.029 402.753, 403.750 404.080 M 773.217 404.561 C 764.156 410.907, 767.863 428, 778.299 428 C 782.086 428, 786.494 423.512, 787.388 418.746 C 789.389 408.080, 780.663 399.345, 773.217 404.561 M 941.289 405.250 C 940.157 406.488, 938.923 408.512, 938.548 409.750 L 937.865 412 946.541 412 L 955.217 412 954.530 409.250 C 953.458 404.954, 951.110 403, 947.019 403 C 944.490 403, 942.709 403.699, 941.289 405.250 M 1000.302 404.012 C 995.431 405.973, 993.299 416.810, 996.548 423.093 C 999.420 428.646, 1007.062 429.279, 1010.988 424.288 L 1013 421.730 1013 415.288 L 1013 408.846 1010.077 405.923 C 1007.105 402.951, 1004.299 402.402, 1000.302 404.012 M 1060.750 404.080 C 1057.911 405.734, 1056 410.540, 1056 416.027 L 1056 421.154 1058.923 424.077 C 1062.587 427.741, 1066.814 427.924, 1070.694 424.587 L 1073.500 422.173 1073.500 415 L 1073.500 407.827 1070.694 405.413 C 1067.760 402.890, 1063.723 402.348, 1060.750 404.080 M 1118.589 406.077 C 1117.165 407.769, 1116 409.794, 1116 410.577 L 1116 412 1124.608 412 L 1133.217 412 1132.530 409.250 C 1131.450 404.921, 1129.115 403, 1124.934 403 L 1121.178 403 1118.589 406.077 M 521.875 417.506 C 518.581 419.296, 517.607 422.751, 519.557 425.728 C 523.055 431.066, 532 426.621, 532 419.545 L 532 416 528.250 416.040 C 526.188 416.062, 523.319 416.722, 521.875 417.506" stroke="none" fill="#046b94" fill-rule="evenodd" />
</svg>